<svg id="Layer_1" data-name="Layer 1" xmlns="http://www.w3.org/2000/svg" xmlns:xlink="http://www.w3.org/1999/xlink" viewBox="0 0 482.01 191.5"><defs><style>.cls-1{fill:none;}.cls-2{opacity:0.5;}.cls-3{clip-path:url(#clip-path);}.cls-4,.cls-5{fill:#fff;}.cls-5{stroke:#000;stroke-miterlimit:10;stroke-width:0.5px;}.cls-6{font-size:24px;font-family:UnicaOne-Regular, Unica One;letter-spacing:0.19em;}.cls-7{letter-spacing:0.23em;}.cls-8{letter-spacing:0.19em;}.cls-9{letter-spacing:0.2em;}.cls-10{letter-spacing:0.18em;}.cls-11{letter-spacing:0.19em;}.cls-12{letter-spacing:0.2em;}.cls-13{letter-spacing:0.23em;}</style><clipPath id="clip-path"><rect class="cls-1" x="-1827.99" y="-288.25" width="1366" height="768"/></clipPath></defs><g class="cls-2"><g class="cls-3"><path class="cls-4" d="M1.58,40.43q0-3.63,1.83-5.23t5.94-1.61A6.92,6.92,0,0,1,14,35.08a8.6,8.6,0,0,1,2.54,4.56l-3.47,2.62H11.22l4-3A6.31,6.31,0,0,0,13,35.72a6.32,6.32,0,0,0-3.64-1,13.76,13.76,0,0,0-2.52.19,7.08,7.08,0,0,0-2.06.73,3.47,3.47,0,0,0-1.55,1.73,7.7,7.7,0,0,0-.52,3.07,3.77,3.77,0,0,0,1.51,2.91,14.08,14.08,0,0,0,3.68,2.17q2.17.89,4.36,1.83a12.18,12.18,0,0,1,3.69,2.39,4.54,4.54,0,0,1,1.52,3.36q0,3.73-1.85,5.57T9.28,60.49A9.88,9.88,0,0,1,3.52,59,7.62,7.62,0,0,1,.65,54.43l1-.44a6.67,6.67,0,0,0,2.56,4.2,9.22,9.22,0,0,0,5,1.17A8.48,8.48,0,0,0,14.6,58q1.74-1.38,1.74-4.89a3.72,3.72,0,0,0-1.52-2.91A13.89,13.89,0,0,0,11.12,48L6.77,46.18a12.25,12.25,0,0,1-3.68-2.39A4.52,4.52,0,0,1,1.58,40.43Z"/><path class="cls-4" d="M48.91,42.93H57.5v8.59H48.91Zm7.47,7.47V44.05H50V50.4Z"/><path class="cls-5" d="M93.69,60.11H90.85V33.7h4.26l4.64,17.43,4.67-17.43h4.27V60.11h-2.85V38.25l-4.75,17.8H98.45l-4.76-17.8Z"/><path class="cls-5" d="M126.29,60.11h-2.84V33.7h2.84Z"/><path class="cls-5" d="M143.87,60.11H141V33.7h1.22l1.18,3q1.29-3.62,4.14-3.62,4.83,0,4.83,5.28V41h-2.72V38.21c0-1.79-.74-2.68-2.23-2.68A3.08,3.08,0,0,0,145,37.07a7.53,7.53,0,0,0-1.12,4.47Z"/><path class="cls-5" d="M179.17,38.78V55a5.25,5.25,0,0,1-1.73,4.21,7.73,7.73,0,0,1-5.16,1.48,7.83,7.83,0,0,1-5.18-1.48A5.23,5.23,0,0,1,165.35,55V38.78a5.23,5.23,0,0,1,1.73-4.2,9.71,9.71,0,0,1,10.34,0A5.18,5.18,0,0,1,179.17,38.78ZM176.32,55V38.78q0-3.26-4.06-3.25t-4.06,3.25V55q0,3.26,4.06,3.25T176.32,55Z"/><path class="cls-5" d="M206.94,55q0,5.7-6.86,5.69T193.21,55V51.58h2.84V55.2a2.74,2.74,0,0,0,1,2.27,6,6,0,0,0,6,0,2.67,2.67,0,0,0,1-2.21,6.8,6.8,0,0,0-.3-2.24,5.37,5.37,0,0,0-1.24-1.77l-7.16-7a7.33,7.33,0,0,1-1.72-2.46,8.46,8.46,0,0,1-.47-3,5.27,5.27,0,0,1,1.69-4.2,7.52,7.52,0,0,1,5.1-1.49q6.54,0,6.54,5.69v3.45h-2.85V38.62a2.84,2.84,0,0,0-.95-2.28,5.47,5.47,0,0,0-5.73,0,2.78,2.78,0,0,0-1,2.24,6.92,6.92,0,0,0,.29,2.23,4.5,4.5,0,0,0,1.26,1.71l7.27,7A7.88,7.88,0,0,1,206.5,52,8.68,8.68,0,0,1,206.94,55Z"/><path class="cls-5" d="M221,33.7h8.93v2.44h-6.09V55.6a3.06,3.06,0,0,0,.59,1.91,2.18,2.18,0,0,0,3.31,0,3.1,3.1,0,0,0,.57-1.93V50.77h2.84v4.67a5.29,5.29,0,0,1-1.36,3.92,5,5,0,0,1-3.67,1.36,5.09,5.09,0,0,1-3.72-1.36,5.19,5.19,0,0,1-1.4-3.92Z"/><path class="cls-5" d="M258.25,38.78V55a5.25,5.25,0,0,1-1.72,4.21,9.77,9.77,0,0,1-10.34,0A5.2,5.2,0,0,1,244.44,55V38.78a5.2,5.2,0,0,1,1.73-4.2,7.73,7.73,0,0,1,5.16-1.49,7.84,7.84,0,0,1,5.18,1.49A5.21,5.21,0,0,1,258.25,38.78ZM255.41,55V38.78c0-2.17-1.36-3.25-4.06-3.25s-4.07,1.08-4.07,3.25V55q0,3.26,4.07,3.25C254.05,58.28,255.41,57.2,255.41,55Z"/><path class="cls-5" d="M275.53,60.11h-2.84V33.7h1.22l1.18,3c.86-2.41,2.25-3.62,4.14-3.62q4.84,0,4.84,5.28V41h-2.73V38.21c0-1.79-.74-2.68-2.23-2.68a3.11,3.11,0,0,0-2.46,1.54,7.6,7.6,0,0,0-1.12,4.47Z"/><path class="cls-5" d="M300.14,60.11h-2.85V33.7h4.27l4.63,17.43,4.67-17.43h4.27V60.11h-2.84V38.25l-4.76,17.8h-2.64l-4.75-17.8Z"/><path class="cls-5" d="M333.26,60.11H329.6V55.64h3.66Z"/><path class="cls-5" d="M353.43,49.14V46.7h7.39V55a5.34,5.34,0,0,1-1.66,4.21,7.32,7.32,0,0,1-5,1.48,7.49,7.49,0,0,1-5-1.48A5.27,5.27,0,0,1,347.41,55V38.78a5.32,5.32,0,0,1,1.67-4.2,7.32,7.32,0,0,1,5-1.49,7.49,7.49,0,0,1,5,1.49,5.24,5.24,0,0,1,1.7,4.2V41H358V38.78q0-3.26-3.86-3.25t-3.86,3.25V55q0,3.26,3.86,3.25T358,55V49.14Z"/><path class="cls-5" d="M378.1,60.11h-2.84V33.7h1.22l1.18,3c.86-2.41,2.25-3.62,4.14-3.62q4.84,0,4.84,5.28V41h-2.73V38.21c0-1.79-.74-2.68-2.23-2.68a3.11,3.11,0,0,0-2.46,1.54,7.6,7.6,0,0,0-1.12,4.47Z"/><path class="cls-5" d="M402.5,33.7h4.26l6,26.41h-2.84L408.51,54h-7.76l-1.38,6.09h-2.85Zm2.11,3.17-3.33,14.71h6.66Z"/><path class="cls-5" d="M429,60.11h-2.84V33.7h6.13a6.94,6.94,0,0,1,4.82,1.5,5.42,5.42,0,0,1,1.64,4.19V46.3a5.41,5.41,0,0,1-1.62,4.2A7,7,0,0,1,432.26,52H429Zm6.91-13.81V39.39a3.07,3.07,0,0,0-.94-2.4,3.82,3.82,0,0,0-2.68-.85H429V49.55h3.29C434.67,49.55,435.88,48.46,435.88,46.3Z"/><path class="cls-5" d="M455.52,60.11h-2.85V33.7h2.85V45.48h8V33.7h2.84V60.11h-2.84V47.92h-8Z"/><path class="cls-5" d="M483.94,60.11H481.1V33.7h2.84Z"/><path class="cls-4" d="M340.5,91.29h14.72V68.92l-8.4,18-8.41-18V92.41l-1.12,0V66.23h1.12l8.41,18,8.4-18,1.12,0V92.41l-15.84,0Z"/><path class="cls-4" d="M367.88,67.38V66.26h8.22v1.12Zm3.55,3.37h1.12V92.41h-1.12Z"/><path class="cls-4" d="M390.56,91.29h10.31l-4.52-12.4,2.09-1.2A4.78,4.78,0,0,0,401,73.17q0-5.79-8.81-5.79h-3.44v25h-1.12V66.26h4.56c3.28,0,5.76.61,7.43,1.81a5.93,5.93,0,0,1,2.5,5.1,5.87,5.87,0,0,1-3.14,5.5l-1.27.7,4.75,13H390.56Z"/><path class="cls-4" d="M429.66,90q-2.06,2.82-6.65,2.82T416.36,90c-1.37-1.88-2.06-4.82-2.06-8.8V77.51q0-6,2.06-8.8T423,65.89q4.59,0,6.65,2.82t2,8.8v3.66C431.71,85.15,431,88.09,429.66,90Zm-3.51-22.49a10.72,10.72,0,0,0-6.28,0,5.93,5.93,0,0,0-2.35,1.58A7.22,7.22,0,0,0,416,72.3a21.93,21.93,0,0,0-.52,5.21v3.66a22,22,0,0,0,.52,5.21,7.18,7.18,0,0,0,1.57,3.23,5.85,5.85,0,0,0,2.35,1.59,10.95,10.95,0,0,0,6.28,0,5.92,5.92,0,0,0,2.35-1.59,7.18,7.18,0,0,0,1.57-3.23,22,22,0,0,0,.52-5.21V77.51a21.93,21.93,0,0,0-.52-5.21,7.22,7.22,0,0,0-1.57-3.24A6,6,0,0,0,426.15,67.48Z"/><path class="cls-4" d="M444.48,72.73q0-3.63,1.83-5.23t5.94-1.61a6.94,6.94,0,0,1,4.63,1.49,8.6,8.6,0,0,1,2.54,4.56l-3.48,2.62h-1.83l4-3a5.58,5.58,0,0,0-5.9-4.52,14,14,0,0,0-2.53.19,6.84,6.84,0,0,0-2.05.73,3.43,3.43,0,0,0-1.55,1.73,7.7,7.7,0,0,0-.52,3.07,3.74,3.74,0,0,0,1.51,2.91,14.08,14.08,0,0,0,3.68,2.17q2.16.89,4.35,1.83a12.11,12.11,0,0,1,3.7,2.39,4.52,4.52,0,0,1,1.51,3.36c0,2.49-.61,4.34-1.85,5.56s-3.34,1.84-6.33,1.84a9.84,9.84,0,0,1-5.75-1.48,7.63,7.63,0,0,1-2.88-4.58l1-.44a6.67,6.67,0,0,0,2.56,4.2,9.21,9.21,0,0,0,5,1.17c2.39,0,4.17-.46,5.32-1.38s1.74-2.55,1.74-4.89a3.71,3.71,0,0,0-1.51-2.91,13.89,13.89,0,0,0-3.7-2.17q-2.19-.9-4.35-1.83A12.13,12.13,0,0,1,446,76.09,4.52,4.52,0,0,1,444.48,72.73Z"/><path class="cls-4" d="M488.65,66.26v1.12h-8.78v25h-1.12v-25H470V66.26Z"/><path class="cls-5" d="M-8.38,92.41h-2.84V66H-10l1.18,3q1.29-3.62,4.14-3.62,4.83,0,4.83,5.28v2.64H-2.57v-2.8c0-1.79-.74-2.68-2.23-2.68a3.08,3.08,0,0,0-2.46,1.54,7.53,7.53,0,0,0-1.12,4.47Z"/><path class="cls-5" d="M16.22,92.41H13.38V66h4.27l4.63,17.43L27,66h4.27V92.41H28.37V70.55l-4.75,17.8H21l-4.76-17.8Z"/><path class="cls-5" d="M49.35,92.41H45.69V87.94h3.66Z"/><path class="cls-5" d="M69.52,81.44V79h7.39v8.33a5.34,5.34,0,0,1-1.66,4.21,7.34,7.34,0,0,1-5,1.48,7.49,7.49,0,0,1-5-1.48,5.27,5.27,0,0,1-1.71-4.21V71.08a5.36,5.36,0,0,1,1.67-4.21,7.37,7.37,0,0,1,5-1.48,7.49,7.49,0,0,1,5,1.48,5.29,5.29,0,0,1,1.71,4.21v2.23H74.07V71.08q0-3.26-3.86-3.25c-2.58,0-3.86,1.08-3.86,3.25V87.33c0,2.17,1.28,3.25,3.86,3.25s3.86-1.08,3.86-3.25V81.44Z"/><path class="cls-5" d="M94.19,92.41H91.35V66h1.22l1.18,3q1.29-3.62,4.14-3.62,4.83,0,4.83,5.28v2.64H100v-2.8c0-1.79-.74-2.68-2.23-2.68a3.08,3.08,0,0,0-2.46,1.54,7.53,7.53,0,0,0-1.12,4.47Z"/><path class="cls-5" d="M118.58,66h4.27l6,26.41H126l-1.38-6.09h-7.76l-1.39,6.09h-2.84Zm2.12,3.17-3.34,14.71H124Z"/><path class="cls-5" d="M145.06,92.41h-2.85V66h6.14a6.9,6.9,0,0,1,4.81,1.5,5.39,5.39,0,0,1,1.65,4.19V78.6a5.38,5.38,0,0,1-1.63,4.2,6.93,6.93,0,0,1-4.83,1.49h-3.29ZM152,78.6V71.69a3.1,3.1,0,0,0-.94-2.4,3.83,3.83,0,0,0-2.68-.85h-3.29V81.85h3.29C150.76,81.85,152,80.76,152,78.6Z"/><path class="cls-5" d="M171.6,92.41h-2.84V66h2.84V77.78h8V66h2.84V92.41h-2.84V80.22h-8Z"/><path class="cls-5" d="M200,92.41h-2.84V66H200Z"/><path class="cls-5" d="M225,87.33V85.1h2.84v2.23a5.34,5.34,0,0,1-1.66,4.21,7.32,7.32,0,0,1-5,1.48,7.49,7.49,0,0,1-5-1.48,5.27,5.27,0,0,1-1.7-4.21V71.08a5.35,5.35,0,0,1,1.66-4.21,7.37,7.37,0,0,1,5-1.48,7.54,7.54,0,0,1,5,1.48,5.28,5.28,0,0,1,1.7,4.21v3.86H225V71.08q0-3.26-3.86-3.25t-3.86,3.25V87.33q0,3.26,3.86,3.25T225,87.33Z"/><path class="cls-5" d="M255.5,87.33q0,5.7-6.87,5.69t-6.87-5.69V83.88h2.85V87.5a2.76,2.76,0,0,0,1,2.27,6,6,0,0,0,6,0,2.69,2.69,0,0,0,1-2.21,6.8,6.8,0,0,0-.3-2.24,5.22,5.22,0,0,0-1.24-1.77l-7.15-7a7.37,7.37,0,0,1-1.73-2.46,8.46,8.46,0,0,1-.47-3,5.34,5.34,0,0,1,1.69-4.21,7.57,7.57,0,0,1,5.1-1.48q6.54,0,6.54,5.69v3.45h-2.84V70.92a2.82,2.82,0,0,0-1-2.28,5.47,5.47,0,0,0-5.73,0,2.8,2.8,0,0,0-.95,2.24,7,7,0,0,0,.28,2.23,4.5,4.5,0,0,0,1.26,1.71l7.28,7a8,8,0,0,1,1.62,2.5A8.62,8.62,0,0,1,255.5,87.33Z"/><path class="cls-4" d="M288.69,75.23h8.59v8.59h-8.59Zm7.47,7.47V76.35h-6.35V82.7Z"/><path class="cls-4" d="M8.67,107.53h8.59v8.59H8.67ZM16.14,115v-6.35H9.79V115Z"/><path class="cls-4" d="M-.19,155.9H14.53V133.52l-8.41,18-8.4-18.05V157l-1.12,0V130.83h1.12l8.4,18,8.41-18,1.12,0V157L-.19,157Z"/><path class="cls-4" d="M29.08,154.85h2.46V157H29.08Z"/><path class="cls-4" d="M59.6,136.13a7.51,7.51,0,0,0-2.43-3.34,8.18,8.18,0,0,0-4.89-1.18,9.4,9.4,0,0,0-3.14.47,5.92,5.92,0,0,0-2.35,1.59,7.18,7.18,0,0,0-1.57,3.23,22,22,0,0,0-.52,5.21v3.66a21.93,21.93,0,0,0,.52,5.21,7.13,7.13,0,0,0,1.57,3.23,5.92,5.92,0,0,0,2.35,1.59,9.4,9.4,0,0,0,3.14.47,8.9,8.9,0,0,0,5.34-1.44,3.94,3.94,0,0,0,2-3.08v-6.31H55v-1.12H61v7.06a5.25,5.25,0,0,1-2.26,4.25,10.21,10.21,0,0,1-6.41,1.76q-4.59,0-6.65-2.82t-2.05-8.8v-3.66q0-6,2.05-8.8t6.65-2.82a9.23,9.23,0,0,1,5.53,1.37,8.85,8.85,0,0,1,2.84,3.86Z"/><path class="cls-4" d="M76.86,155.9H87.17l-4.52-12.41,2.09-1.19a4.79,4.79,0,0,0,2.58-4.52q0-5.79-8.81-5.79H75.07v25H74V130.87h4.56q4.92,0,7.43,1.81a5.93,5.93,0,0,1,2.5,5.1,5.84,5.84,0,0,1-3.14,5.49L84,144l4.75,13H76.86Z"/><path class="cls-4" d="M103.56,155.9h13.75l-7.92-21.78L101.06,157H99.87l9.52-26.19L118.92,157H103.56Z"/><path class="cls-4" d="M140,144.47l-.56-1,2.09-1.19a4.78,4.78,0,0,0,2.57-4.52q0-5.79-8.81-5.79h-3.44v25h-1.12V130.87h4.56c3.29,0,5.76.6,7.43,1.81a5.94,5.94,0,0,1,2.51,5.1,5.86,5.86,0,0,1-3.14,5.49Z"/><path class="cls-4" d="M173.17,157h-1.12V143.94H158.61V157h-1.13V130.87h1.13v11.95h13.44V130.87h1.12Z"/><path class="cls-4" d="M184.73,132v-1.12H193V132Zm3.55,3.36h1.12V157h-1.12Z"/><path class="cls-4" d="M219.81,152.23a8.72,8.72,0,0,1-2.84,3.82,9.29,9.29,0,0,1-5.49,1.34c-3.07,0-5.28-.94-6.65-2.82s-2.06-4.81-2.06-8.8v-3.66q0-6,2.06-8.8c1.37-1.88,3.58-2.82,6.65-2.82a9.22,9.22,0,0,1,5.49,1.35,8.75,8.75,0,0,1,2.84,3.81l-1,.48a7.51,7.51,0,0,0-2.43-3.34,8.22,8.22,0,0,0-4.89-1.18,9.4,9.4,0,0,0-3.14.47,5.85,5.85,0,0,0-2.35,1.59,7.18,7.18,0,0,0-1.57,3.23,21.93,21.93,0,0,0-.53,5.21v3.66a21.87,21.87,0,0,0,.53,5.21,7.13,7.13,0,0,0,1.57,3.23,5.85,5.85,0,0,0,2.35,1.59,9.4,9.4,0,0,0,3.14.47,8.15,8.15,0,0,0,4.89-1.18,7.46,7.46,0,0,0,2.43-3.34Z"/><path class="cls-4" d="M232.37,137.33q0-3.63,1.83-5.23t5.94-1.61a6.87,6.87,0,0,1,4.63,1.5,8.52,8.52,0,0,1,2.54,4.56l-3.47,2.61H242l4-3a6.39,6.39,0,0,0-2.26-3.51,6.29,6.29,0,0,0-3.64-1,14.89,14.89,0,0,0-2.52.19,7.32,7.32,0,0,0-2.05.73,3.37,3.37,0,0,0-1.55,1.74,7.64,7.64,0,0,0-.53,3.06,3.72,3.72,0,0,0,1.52,2.91,13.76,13.76,0,0,0,3.68,2.17l4.35,1.83a12.23,12.23,0,0,1,3.7,2.39,4.56,4.56,0,0,1,1.51,3.36q0,3.73-1.85,5.57t-6.33,1.83a9.83,9.83,0,0,1-5.76-1.48,7.59,7.59,0,0,1-2.87-4.57l1-.45a6.61,6.61,0,0,0,2.56,4.2,9.15,9.15,0,0,0,5,1.18,8.48,8.48,0,0,0,5.32-1.38c1.16-.92,1.74-2.56,1.74-4.9a3.75,3.75,0,0,0-1.52-2.91,13.82,13.82,0,0,0-3.69-2.17q-2.19-.89-4.36-1.83a12.08,12.08,0,0,1-3.67-2.39A4.54,4.54,0,0,1,232.37,137.33Z"/><path class="cls-4" d="M279.7,139.83h8.59v8.59H279.7Zm7.47,7.47V141h-6.35v6.35Z"/><path class="cls-5" d="M324.49,157h-2.85V130.61h4.27L330.54,148l4.67-17.43h4.27V157h-2.85V135.16L331.88,153h-2.64l-4.75-17.79Z"/><path class="cls-5" d="M357.08,157h-2.84V130.61h2.84Z"/><path class="cls-5" d="M374.66,157h-2.84V130.61H373l1.18,3c.86-2.41,2.25-3.61,4.14-3.61,3.22,0,4.84,1.76,4.84,5.28v2.64h-2.73v-2.8c0-1.79-.74-2.69-2.23-2.69a3.12,3.12,0,0,0-2.46,1.55,7.6,7.6,0,0,0-1.12,4.47Z"/><path class="cls-5" d="M410,135.68v16.26a5.24,5.24,0,0,1-1.73,4.2,7.73,7.73,0,0,1-5.16,1.49,7.83,7.83,0,0,1-5.18-1.49,5.22,5.22,0,0,1-1.74-4.2V135.68a5.24,5.24,0,0,1,1.72-4.2,9.77,9.77,0,0,1,10.34,0A5.2,5.2,0,0,1,410,135.68Zm-2.84,16.26V135.68c0-2.16-1.36-3.25-4.07-3.25s-4.06,1.09-4.06,3.25v16.26c0,2.16,1.35,3.25,4.06,3.25S407.12,154.1,407.12,151.94Z"/><path class="cls-5" d="M437.74,151.94q0,5.69-6.87,5.69T424,151.94v-3.46h2.85v3.62a2.79,2.79,0,0,0,1,2.28,6,6,0,0,0,6,0,2.71,2.71,0,0,0,1-2.22,6.74,6.74,0,0,0-.3-2.23,5.17,5.17,0,0,0-1.24-1.77l-7.15-7a7.37,7.37,0,0,1-1.73-2.46,8.46,8.46,0,0,1-.47-3,5.28,5.28,0,0,1,1.69-4.2,7.52,7.52,0,0,1,5.1-1.48q6.54,0,6.54,5.68v3.46h-2.84v-3.62a2.81,2.81,0,0,0-1-2.27,5.42,5.42,0,0,0-5.73,0,2.78,2.78,0,0,0-.95,2.23,7.07,7.07,0,0,0,.28,2.24,4.4,4.4,0,0,0,1.26,1.7l7.27,7a8,8,0,0,1,1.63,2.5A8.72,8.72,0,0,1,437.74,151.94Z"/><path class="cls-5" d="M451.78,130.61h8.94V133h-6.1v19.47a3.1,3.1,0,0,0,.59,1.91,2,2,0,0,0,1.67.77,1.94,1.94,0,0,0,1.64-.75,3.11,3.11,0,0,0,.57-1.93v-4.84h2.85v4.67a5.32,5.32,0,0,1-1.36,3.92,5,5,0,0,1-3.68,1.37,5.09,5.09,0,0,1-3.72-1.37,5.21,5.21,0,0,1-1.4-3.92Z"/><path class="cls-5" d="M489.05,135.68v16.26a5.24,5.24,0,0,1-1.73,4.2,9.71,9.71,0,0,1-10.34,0,5.2,5.2,0,0,1-1.75-4.2V135.68a5.24,5.24,0,0,1,1.73-4.2,7.73,7.73,0,0,1,5.16-1.48,7.83,7.83,0,0,1,5.18,1.48A5.23,5.23,0,0,1,489.05,135.68Zm-2.85,16.26V135.68c0-2.16-1.35-3.25-4.06-3.25s-4.06,1.09-4.06,3.25v16.26c0,2.16,1.35,3.25,4.06,3.25S486.2,154.1,486.2,151.94Z"/><path class="cls-4" d="M-4.21,172.14H4.38v8.59H-4.21Zm7.47,7.47v-6.35H-3.09v6.35Z"/><path class="cls-5" d="M40.57,189.32H37.73V162.91H42l4.63,17.43,4.67-17.43h4.27v26.41H52.72V167.46L48,185.26H45.33l-4.76-17.8Z"/><path class="cls-5" d="M73.17,189.32H70.33V162.91h2.84Z"/><path class="cls-5" d="M90.75,189.32H87.91V162.91h1.22l1.18,3q1.29-3.61,4.14-3.61c3.22,0,4.84,1.76,4.84,5.28v2.64H96.56v-2.8c0-1.79-.74-2.68-2.23-2.68a3.08,3.08,0,0,0-2.46,1.54,7.53,7.53,0,0,0-1.12,4.47Z"/><path class="cls-5" d="M126.05,168v16.25a5.23,5.23,0,0,1-1.73,4.2,7.73,7.73,0,0,1-5.16,1.49,7.83,7.83,0,0,1-5.18-1.49,5.21,5.21,0,0,1-1.75-4.2V168a5.25,5.25,0,0,1,1.73-4.21,9.77,9.77,0,0,1,10.34,0A5.2,5.2,0,0,1,126.05,168Zm-2.85,16.25V168q0-3.26-4.06-3.25T115.08,168v16.25q0,3.25,4.06,3.25T123.2,184.24Z"/><path class="cls-5" d="M153.83,184.24q0,5.69-6.87,5.69t-6.87-5.69v-3.45h2.85v3.61a2.74,2.74,0,0,0,1,2.28,6,6,0,0,0,6,0,2.7,2.7,0,0,0,1-2.22,6.74,6.74,0,0,0-.3-2.23,5.17,5.17,0,0,0-1.24-1.77l-7.15-7a7.37,7.37,0,0,1-1.73-2.46,8.36,8.36,0,0,1-.47-3,5.29,5.29,0,0,1,1.69-4.21,7.52,7.52,0,0,1,5.1-1.48q6.54,0,6.54,5.69v3.45h-2.85v-3.62a2.81,2.81,0,0,0-.95-2.27,5.47,5.47,0,0,0-5.73,0,2.76,2.76,0,0,0-.95,2.23,7,7,0,0,0,.28,2.24,4.4,4.4,0,0,0,1.26,1.7l7.27,7a8,8,0,0,1,1.63,2.5A8.72,8.72,0,0,1,153.83,184.24Z"/><path class="cls-5" d="M167.87,162.91h8.94v2.44h-6.1v19.46a3.08,3.08,0,0,0,.59,1.91,2,2,0,0,0,1.67.77,1.94,1.94,0,0,0,1.64-.75,3.11,3.11,0,0,0,.57-1.93V180H178v4.68a5.31,5.31,0,0,1-1.36,3.92,5,5,0,0,1-3.67,1.36,5.13,5.13,0,0,1-3.72-1.36,5.21,5.21,0,0,1-1.4-3.92Z"/><path class="cls-5" d="M205.13,168v16.25a5.22,5.22,0,0,1-1.72,4.2,9.71,9.71,0,0,1-10.34,0,5.18,5.18,0,0,1-1.75-4.2V168a5.22,5.22,0,0,1,1.73-4.21,7.73,7.73,0,0,1,5.16-1.48,7.83,7.83,0,0,1,5.18,1.48A5.23,5.23,0,0,1,205.13,168Zm-2.84,16.25V168q0-3.26-4.06-3.25T194.16,168v16.25q0,3.25,4.07,3.25T202.29,184.24Z"/><path class="cls-5" d="M222.42,189.32h-2.85V162.91h1.22l1.18,3q1.31-3.61,4.14-3.61,4.84,0,4.84,5.28v2.64h-2.72v-2.8c0-1.79-.75-2.68-2.24-2.68a3.11,3.11,0,0,0-2.46,1.54,7.6,7.6,0,0,0-1.11,4.47Z"/><path class="cls-5" d="M247,189.32h-2.85V162.91h4.27l4.63,17.43,4.67-17.43H262v26.41h-2.84V167.46l-4.76,17.8h-2.64L247,167.46Z"/><path class="cls-5" d="M280.14,189.32h-3.66v-4.47h3.66Z"/><path class="cls-5" d="M300.31,178.35v-2.44h7.39v8.33a5.32,5.32,0,0,1-1.66,4.2,7.32,7.32,0,0,1-5,1.49,7.49,7.49,0,0,1-5-1.49,5.24,5.24,0,0,1-1.7-4.2V168a5.34,5.34,0,0,1,1.66-4.21,7.32,7.32,0,0,1,5-1.48,7.49,7.49,0,0,1,5,1.48,5.27,5.27,0,0,1,1.7,4.21v2.23h-2.84V168q0-3.26-3.86-3.25T297.14,168v16.25q0,3.25,3.86,3.25t3.86-3.25v-5.89Z"/><path class="cls-5" d="M325,189.32h-2.85V162.91h1.22l1.18,3q1.31-3.61,4.14-3.61,4.85,0,4.84,5.28v2.64H330.8v-2.8c0-1.79-.75-2.68-2.24-2.68a3.11,3.11,0,0,0-2.46,1.54,7.6,7.6,0,0,0-1.11,4.47Z"/><path class="cls-5" d="M349.38,162.91h4.26l6,26.41h-2.85l-1.38-6.1h-7.76l-1.38,6.1H343.4Zm2.11,3.17-3.33,14.71h6.66Z"/><path class="cls-5" d="M375.85,189.32H373V162.91h6.13a6.92,6.92,0,0,1,4.82,1.5,5.41,5.41,0,0,1,1.64,4.19v6.9a5.42,5.42,0,0,1-1.62,4.21,7,7,0,0,1-4.84,1.48h-3.29Zm6.91-13.82v-6.9a3.07,3.07,0,0,0-.94-2.4,3.82,3.82,0,0,0-2.68-.85h-3.29v13.4h3.29Q382.76,178.75,382.76,175.5Z"/><path class="cls-5" d="M402.4,189.32h-2.85V162.91h2.85v11.78h8V162.91h2.84v26.41H410.4V177.13h-8Z"/><path class="cls-5" d="M430.82,189.32H428V162.91h2.84Z"/><path class="cls-5" d="M455.83,184.24V182h2.85v2.24a5.32,5.32,0,0,1-1.67,4.2,7.3,7.3,0,0,1-5,1.49,7.44,7.44,0,0,1-5-1.49,5.25,5.25,0,0,1-1.71-4.2V168a5.34,5.34,0,0,1,1.66-4.21,7.34,7.34,0,0,1,5-1.48,7.49,7.49,0,0,1,5,1.48,5.27,5.27,0,0,1,1.71,4.21v3.86h-2.85V168c0-2.17-1.28-3.25-3.86-3.25s-3.86,1.08-3.86,3.25v16.25q0,3.25,3.86,3.25C454.55,187.49,455.83,186.41,455.83,184.24Z"/><path class="cls-5" d="M486.29,184.24q0,5.69-6.87,5.69t-6.86-5.69v-3.45h2.84v3.61a2.75,2.75,0,0,0,1,2.28,6,6,0,0,0,6,0,2.68,2.68,0,0,0,1-2.22,6.45,6.45,0,0,0-.31-2.23,4.91,4.91,0,0,0-1.24-1.77l-7.15-7A7.52,7.52,0,0,1,473,171a8.38,8.38,0,0,1-.46-3,5.32,5.32,0,0,1,1.68-4.21,7.56,7.56,0,0,1,5.1-1.48q6.54,0,6.54,5.69v3.45H483v-3.62a2.84,2.84,0,0,0-1-2.27,4.37,4.37,0,0,0-2.87-.81,4.32,4.32,0,0,0-2.86.81,2.77,2.77,0,0,0-1,2.23,7,7,0,0,0,.29,2.24,4.4,4.4,0,0,0,1.26,1.7l7.27,7a8,8,0,0,1,1.62,2.5A8.72,8.72,0,0,1,486.29,184.24Z"/></g></g><path d="M106.71,143.53l-.91-2.71a29.76,29.76,0,0,1-1.24-5.58l-.89-7,4.16.88L120,71.7,104.29,92.6V68.81l17.43-23.13h17.94L121.5,69.77l8.87.93V92l-11.5,54.12ZM58.5,68.81a8.3,8.3,0,0,0-2.64-.57l-5.64-.47,5.2-24.43,4.45.44a41.59,41.59,0,0,1,4.85.76l4.85,1.06L64.11,71.25Z"/><polygon points="120.37 91.49 120.37 70.18 121.61 64.29 123.47 55.68 114.18 55.68 129.6 35.24 141.96 37.45 130.26 92.53 120.37 91.49"/><path d="M72.87,88,65.24,54.89l-2.67-.58a30.09,30.09,0,0,0-3.68-.58l-5.57-.55,7-32.92,12.23,2.61L88.08,90.29l26.21-34.74V79.34L81,123.43Z"/><path d="M42,129.65,37.3,128.5l5.36-25.16,3.91-18.41,5.74-27,4.4.37a18.38,18.38,0,0,1,5.78,1.36l3.75,1.63-15,70.66Z"/><path d="M199.42,27.6l14,2.95L205.38,68.4l-4.25-.21c-.32,0-.66,0-1,0a23.29,23.29,0,0,0-2.62.14l-6.91.8Z"/><path d="M256.59,133l-8.6-1.84,19.64-92.42,3.52,8.94c.13-.1.26-.2.4-.29L282,39.92,262,134.1Z"/><path d="M272.65,136.39,259,133.48l2.94-14,36.8,7.83L292,79.81l6.13-2,6.72-2.15c5.56-1.68,8.7-5.25,10-11.25,1.21-5.65.1-10-3.48-13.59-4.05-4.09-11.2-7.25-21.26-9.39l-8.07-1.71-3.12,14.64-1.58,1.13a14.48,14.48,0,0,0-3.75,4.06l-5.28,8.21-4.46-11.33L271,22.77l22.08,4.69c13.37,2.84,23.21,7.66,29.24,14.33a27.11,27.11,0,0,1,7.21,16.45l0,.18v4.07l0,.17a31.49,31.49,0,0,1-.68,4.77c-2.35,11.07-9.15,18.65-19.64,21.91l-1.29.4,7.84,55.82Z"/><path d="M319.57,62.32V58.61l10-.41a28.29,28.29,0,0,1,0,4.51Z"/><path d="M411.59,140a49.78,49.78,0,0,1-10.43-1.18c-1.59-.34-3.14-.74-4.62-1.19L393,136.59V121.42l6.59,2.21a40.49,40.49,0,0,0,4.55,1.23,36.71,36.71,0,0,0,7.5.87c.69,0,1.37,0,2-.08l5.43-.47v14.41l-4.63.35C413.52,140,412.56,140,411.59,140Z"/><path d="M49.39,131.2l3-13.85L114,130.46l.45,3.52a19.53,19.53,0,0,0,.81,3.68l2.77,8.31Z"/><path d="M176.39,136l16.4-77.18,3.57-.41a31.84,31.84,0,0,1,3.77-.21c.51,0,1,0,1.5,0l5.86.29L190.39,139Z"/><path d="M409.09,126l4.63-.33c.29,0,.57-.05.85-.09a18,18,0,0,0,8-3.25c2.51-1.76,4.82-4.79,6.87-9a80,80,0,0,0,5.76-18.08l2.94-13.81a81.09,81.09,0,0,0,2.09-18.86c-.16-4.69-1-8.41-2.62-11a17.8,17.8,0,0,0-5.93-6.18,31.38,31.38,0,0,0-9.88-3.65,36.55,36.55,0,0,0-7.5-.87,21.79,21.79,0,0,0-3,.19,17.67,17.67,0,0,0-8,3.24,20.72,20.72,0,0,0-5.74,6.84c-.43.79-.8,1.49-1.13,2.18a68.73,68.73,0,0,0-4.21,11.67c-.56,2.07-1.08,4.23-1.54,6.4l-2.93,13.81A80.59,80.59,0,0,0,385.71,104c.16,4.7,1.05,8.41,2.62,11a17.74,17.74,0,0,0,5.94,6.18,25.56,25.56,0,0,0,5.31,2.42l3.43,1.13v14.85l-6.44-1.93c-10.63-3.18-17.94-9.12-21.74-17.63a36.25,36.25,0,0,1-2.36-7.49c-1.31-6.34-1.33-14-.05-22.72.34-2.36.79-4.87,1.38-7.68l2.94-13.81c.2-1,.43-2,.66-2.93a85.38,85.38,0,0,1,6.66-19.06,41.49,41.49,0,0,1,9-12.21c5.66-5.09,12.8-7.66,21.22-7.66a51.19,51.19,0,0,1,10.51,1.18c13.14,2.79,22,9.12,26.33,18.81,4.14,9.28,4.47,21.68,1,37.9l-2.93,13.8c-3.44,16.22-8.79,27.41-16.35,34.21a30,30,0,0,1-18.45,7.55l-5.34.37Z"/><path class="cls-4" d="M59.38,48.75,56.29,63.26a13.47,13.47,0,0,1,4.21,1l3.15-14.8A36.78,36.78,0,0,0,59.38,48.75Zm64.84,1.93-14.93,19.8v7.18l20.34-27Zm-12.53,84.39-2.17-.46a24.3,24.3,0,0,0,1,4.63l4.47,1,10.35-48.71V70.7Z"/><polygon class="cls-4" points="136 41.46 134.04 50.68 130.93 65.32 125.37 91.49 125.37 70.7 126.51 65.32 129.66 50.68 129.67 50.63 129.63 50.68 124.22 50.68 131.75 40.7 136 41.46"/><path class="cls-4" d="M109.29,70.48v7.18L83.5,111.86,77.75,86.92,69.58,51.44,66.27,37.09,63.65,49.42a36.78,36.78,0,0,0-4.27-.67l4.79-22.56,4.22.9,6.47,28.08,5.88,25.51,4.88,21.18Z"/><path class="cls-4" d="M60.5,64.22,55.13,89.5,51.21,108l-3.8,17.88-3.83-1-.37-.09.37-1.74,4-18.67L51.46,86l4.83-22.71A13.47,13.47,0,0,1,60.5,64.22Z"/><path class="cls-4" d="M203.28,33.52l-3.19,15-3.15,14.81a27.81,27.81,0,0,1,3.19-.17c.43,0,.85,0,1.25,0l3.08-14.49,3-14.29Z"/><path class="cls-4" d="M269.4,56.87l-.33-.84-11.46,53.9-3.69,17.36,3.69.79.53.11,16.31-76.75A19.49,19.49,0,0,0,269.4,56.87Z"/><path class="cls-4" d="M324.57,58.61v3.71a28,28,0,0,1-.58,4.05q-3,14.09-16.24,18.19l-5.35,1.66,7.44,53-36.15-7.68-8.78-1.87.89-4.23,7.89,1.68,31,6.59-7.1-50.39,2.12-.68,4.23-1.35,2.49-.8q10.86-3.28,13.34-15,4.65-21.82-28.6-28.9l-13-2.75-3.75,17.62a19.49,19.49,0,0,0-5.05,5.43l-.33-.84,5.81-27.33,17.18,3.65q18.6,3.94,26.58,12.79A22.15,22.15,0,0,1,324.57,58.61Z"/><path class="cls-4" d="M324.57,62.32V58.61A23,23,0,0,1,324.57,62.32Z"/><path class="cls-4" d="M403.11,129.75a47,47,0,0,1-5.1-1.38v4.52q2,.62,4.2,1.08a42,42,0,0,0,11.88,1v-4.32A37.88,37.88,0,0,1,403.11,129.75Z"/><path d="M64.66,86.92V71.11a7.12,7.12,0,0,0-2.33-5.78,6.87,6.87,0,0,0-1.83-1.11,13.47,13.47,0,0,0-4.21-1,21.23,21.23,0,0,0-2.17-.1c-3.76,0-6.52.73-8.21,2.17A6.84,6.84,0,0,0,43.58,71a22.33,22.33,0,0,0,.84,6.93,13.17,13.17,0,0,0,3.66,4.83L51.46,86l-3.91,18.41L36.18,93.27a29.27,29.27,0,0,1-6.82-9.77A32.94,32.94,0,0,1,27.5,71.68c0-7.3,2.36-13.07,7-17.15s11.27-6,20-6c1.71,0,3.32.08,4.83.23a36.78,36.78,0,0,1,4.27.67,26.41,26.41,0,0,1,5.93,2l8.17,35.48Z"/><path d="M80.74,71.68v9L74.86,55.17C79.43,59.75,80.74,66,80.74,71.68Z"/><path d="M82,133.09c-1.14,9.56-7.19,19.35-27.11,19.35-22.59,0-27.34-12.59-27.34-23.16V114H43.58v9l-.37,1.74.37.09v5a6.75,6.75,0,0,0,2.48,5.72c1.84,1.47,4.79,2.22,8.78,2.22s6.94-.75,8.78-2.22a6.52,6.52,0,0,0,2.48-5.51v-.39Z"/><path d="M82.17,128.8l-16.43-3.49a12.94,12.94,0,0,0-.54-2.13A15.42,15.42,0,0,0,61.5,118L51.21,108,55.13,89.5l18.93,18.18a31.44,31.44,0,0,1,6.34,9.82A33.29,33.29,0,0,1,82.17,128.8Z"/><polygon points="146.97 50.68 146.97 65.32 130.93 65.32 134.04 50.68 146.97 50.68"/><path d="M151.29,111.16v19.56c0,6.85-1.91,12.23-5.7,16s-8.88,5.7-15.15,5.7-11.39-1.91-15.27-5.67a18.17,18.17,0,0,1-4.62-7.53,24.3,24.3,0,0,1-1-4.63,32.29,32.29,0,0,1-.23-3.89v-80h20.37l-3.15,14.64h-1.14v66a7.83,7.83,0,0,0,1.48,4.94,4,4,0,0,0,3.52,1.56,3.84,3.84,0,0,0,3.44-1.47,8.12,8.12,0,0,0,1.4-5V111.16Z"/><path d="M220.36,54.49c-3.85-3.27-9.19-5.21-15.9-5.79-1.39-.12-2.85-.18-4.37-.18h0c-8.81,0-15.62,2-20.24,6s-7.17,9.87-7.17,17.18v57.6c0,7.33,2.44,13.11,7.25,17.19s11.5,6,20.31,6,15.61-2,20.24-6,7.16-9.86,7.16-17.18V71.68C227.61,64.36,225.18,58.58,220.36,54.49Zm-8.83,74.79c0,4.22-1.35,8.52-11.4,8.52s-11.4-4.3-11.4-8.52v-6.57L186.54,133l-4.22-.9L188.73,102V71.68c0-3.72,1.06-7.51,8.21-8.35a27.81,27.81,0,0,1,3.19-.17c.43,0,.85,0,1.25,0,8.91.34,10.15,4.46,10.15,8.49Z"/><path d="M303.93,70.24v11L299.7,82.6H288.29V69.67c0-6-2.54-6.51-4.92-6.51-2.17,0-4.23,1.39-6.29,4.23-2.25,3.11-3.39,7.85-3.39,14.08v45.61l-7.89-1.68-.89,4.23,8.78,1.87v18.78H257.61V50.68H267L269.07,56l.33.84a19.49,19.49,0,0,1,5.05-5.43,15.92,15.92,0,0,1,9.35-2.92C293,48.52,303.93,52.29,303.93,70.24Z"/><path d="M388.52,48.63a80.39,80.39,0,0,0-6.26,18c-.24.2-.47.41-.7.63-2.78,2.67-4.19,5.13-4.19,7.34v16q-1.8,12.28,0,21v38.72H361.29V71.68c0-7.49-3.54-8.52-7.36-8.52a13.22,13.22,0,0,0-9.14,3.9c-2.74,2.51-4.14,4.89-4.14,7.07v76.15H324.57V50.68h9.37l2.36,6a26.66,26.66,0,0,1,5.51-4.64,22.63,22.63,0,0,1,12.26-3.56c8.83,0,15.21,2.69,19,8A22.76,22.76,0,0,1,388.52,48.63Z"/><path d="M414.09,71.68v78.6H398V71.68c0-7.49-3.54-8.52-7.36-8.52a11.31,11.31,0,0,0-3.18.45A72.69,72.69,0,0,1,392,51.05c.42-.86.85-1.67,1.28-2.45C406.92,49.44,414.09,57.38,414.09,71.68Z"/><path class="cls-4" d="M110.55,139.24,82,133.09,66.1,129.68l-10.78-2.32.87-4.08,9.55,2,16.43,3.49,27.35,5.81A24.3,24.3,0,0,0,110.55,139.24Z"/><path class="cls-4" d="M201.38,63.19l-12.65,59.52L186.54,133l-4.22-.9L188.73,102l8.21-38.63a27.81,27.81,0,0,1,3.19-.17C200.56,63.16,201,63.17,201.38,63.19Z"/><path class="cls-4" d="M447.27,83.34l-2.93,13.8q-4.79,22.55-14.8,31.53A25,25,0,0,1,414.09,135v-4.32c.41,0,.82-.07,1.22-.13a22.93,22.93,0,0,0,10.15-4.1q4.85-3.39,8.5-10.93a84.09,84.09,0,0,0,6.15-19.23l2.94-13.8a85.13,85.13,0,0,0,2.2-20.07Q445,54,441.93,48.93a22.91,22.91,0,0,0-7.61-7.87,41.41,41.41,0,0,0-23.66-5,22.81,22.81,0,0,0-10.15,4.1,25.41,25.41,0,0,0-7.22,8.47c-.43.78-.86,1.59-1.28,2.45a72.69,72.69,0,0,0-4.54,12.56q-.86,3.15-1.61,6.67l-2.93,13.81a84.67,84.67,0,0,0-2.21,20.07q.28,8.37,3.33,13.44a22.88,22.88,0,0,0,7.6,7.87,30.39,30.39,0,0,0,6.36,2.9v4.52Q384.2,128.75,379.4,118a31,31,0,0,1-2-6.45q-1.8-8.7,0-21c.34-2.36.79-4.81,1.33-7.37l2.93-13.8c.2-1,.41-1.89.63-2.8a80.39,80.39,0,0,1,6.26-18,36.4,36.4,0,0,1,7.91-10.77q10-9,27.34-5.3t22.81,16Q452.06,60.81,447.27,83.34Z"/><text class="cls-6" transform="translate(295.82 170.88)">g<tspan class="cls-7" x="16.5" y="0">r</tspan><tspan class="cls-8" x="31.51" y="0">a</tspan><tspan class="cls-9" x="48.09" y="0">p</tspan><tspan class="cls-10" x="63.92" y="0">h</tspan><tspan class="cls-11" x="81.13" y="0">i</tspan><tspan class="cls-12" x="92.11" y="0">c</tspan><tspan class="cls-13" x="108.74" y="0">s</tspan></text></svg>